<?xml version="1.0" standalone="no"?>
<!DOCTYPE svg PUBLIC "-//W3C//DTD SVG 20010904//EN"
 "http://www.w3.org/TR/2001/REC-SVG-20010904/DTD/svg10.dtd">
<svg version="1.0" xmlns="http://www.w3.org/2000/svg"
 width="383.000000pt" height="312.000000pt" viewBox="0 0 383.000000 312.000000"
 preserveAspectRatio="xMidYMid meet">

<g transform="translate(0.000000,312.000000) scale(0.100000,-0.100000)"
fill="#000000" stroke="none">
<path d="M1370 2411 c0 -5 18 -11 39 -15 71 -11 71 -10 71 -364 l0 -313 -25
-24 c-15 -16 -36 -25 -55 -25 -16 0 -30 -4 -30 -10 0 -6 52 -10 135 -10 131 0
178 12 93 23 -23 3 -48 14 -55 23 -10 14 -13 87 -12 308 0 262 2 288 15 261 8
-16 75 -160 148 -320 74 -159 138 -291 143 -292 5 -2 74 137 152 309 79 172
148 317 153 323 5 6 8 -105 6 -283 l-3 -294 -24 -19 c-13 -10 -36 -19 -52 -19
-16 0 -29 -4 -29 -10 0 -6 60 -10 160 -10 100 0 160 4 160 10 0 6 -13 10 -29
10 -16 0 -39 9 -52 19 l-24 19 0 325 c0 360 -1 353 66 363 76 12 38 25 -68 22
l-107 -3 -136 -297 c-74 -164 -137 -297 -140 -297 -3 0 -68 135 -144 299
l-139 300 -109 0 c-59 0 -108 -4 -108 -9z"/>
<path d="M1190 1120 l0 -180 30 0 30 0 0 98 0 97 51 -77 c71 -107 87 -107 158
0 l51 77 0 -97 0 -98 30 0 30 0 0 180 0 180 -30 0 c-27 0 -30 -3 -30 -30 0
-20 -21 -61 -62 -125 -35 -52 -65 -95 -68 -95 -3 0 -33 43 -67 95 -42 64 -63
105 -63 125 0 27 -3 30 -30 30 l-30 0 0 -180z"/>
<path d="M1760 1253 c-45 -102 -130 -302 -130 -307 0 -3 13 -6 29 -6 27 0 31
7 86 133 31 72 60 135 64 140 4 4 34 -54 66 -129 33 -75 65 -138 71 -141 7 -2
22 -3 33 -1 18 3 13 18 -57 181 -77 177 -77 177 -109 177 -29 0 -34 -5 -53
-47z"/>
<path d="M2055 1220 c-18 -20 -18 -21 20 -60 l39 -40 -39 -40 c-38 -39 -38
-40 -20 -60 l19 -21 36 36 c20 19 40 35 45 35 5 0 25 -16 45 -35 l36 -36 19
21 c18 20 18 21 -20 60 l-39 40 39 40 c39 40 39 40 19 60 -20 20 -20 20 -59
-20 l-39 -40 -41 40 -41 41 -19 -21z"/>
<path d="M2355 1220 c-18 -20 -18 -21 23 -63 l42 -43 -40 -39 -40 -39 20 -20
20 -20 40 39 40 39 40 -39 40 -39 20 20 20 20 -40 39 -40 39 42 43 42 43 -20
20 -20 20 -41 -35 c-23 -19 -45 -35 -49 -35 -5 0 -24 16 -44 35 l-36 36 -19
-21z"/>
</g>
</svg>
