<?xml version="1.0" standalone="no"?>
<!DOCTYPE svg PUBLIC "-//W3C//DTD SVG 20010904//EN"
 "http://www.w3.org/TR/2001/REC-SVG-20010904/DTD/svg10.dtd">
<svg version="1.0" xmlns="http://www.w3.org/2000/svg"
 width="900.000000pt" height="768.000000pt" viewBox="0 0 900.000000 768.000000"
 preserveAspectRatio="xMidYMid meet">

<g transform="translate(0.000000,768.000000) scale(0.100000,-0.100000)"
fill="#000000" stroke="none">
<path d="M3239 5848 c-35 -13 -15 -33 42 -39 93 -11 142 -40 177 -104 15 -27
17 -101 20 -729 2 -472 -1 -716 -8 -751 -17 -82 -72 -121 -188 -134 -41 -4
-57 -10 -57 -21 0 -13 41 -15 310 -15 269 0 310 2 310 15 0 11 -17 17 -64 22
-36 4 -85 18 -110 31 -83 42 -81 22 -78 767 1 423 5 645 12 644 6 -1 107 -210
225 -466 118 -255 233 -502 254 -549 22 -46 54 -115 71 -154 18 -38 49 -106
70 -150 20 -44 46 -99 56 -123 38 -87 31 -100 385 668 390 847 364 791 375
784 13 -8 12 -1250 -2 -1314 -6 -28 -21 -63 -34 -79 -28 -32 -108 -61 -171
-61 -37 0 -44 -3 -44 -20 0 -20 7 -20 380 -20 364 0 380 1 380 19 0 15 -10 19
-60 24 -33 3 -80 15 -105 27 -85 41 -80 -13 -80 830 0 849 -6 788 87 834 36
18 68 26 105 26 45 0 53 3 53 19 0 10 -6 21 -12 23 -7 2 -117 4 -244 3 -179 0
-235 -3 -248 -14 -9 -7 -16 -17 -16 -21 0 -6 -89 -201 -232 -510 -16 -36 -49
-108 -73 -160 -24 -52 -63 -138 -87 -190 -24 -52 -84 -183 -133 -290 -49 -107
-94 -201 -100 -208 -17 -19 -24 -8 -103 164 -39 83 -95 204 -126 269 -31 64
-56 119 -56 120 0 2 -29 64 -65 140 -36 75 -65 138 -65 139 0 2 -29 64 -64
137 -35 74 -73 154 -84 179 -82 182 -113 240 -124 241 -55 6 -463 3 -479 -3z"/>
<path d="M2795 3207 c-3 -6 -4 -194 -3 -417 l3 -405 65 0 65 0 3 210 c1 115 6
213 11 218 6 6 58 -63 127 -167 l118 -177 60 3 61 3 115 172 c63 95 120 171
125 170 6 -2 11 -87 13 -220 l2 -217 65 0 65 0 0 420 0 420 -65 0 -65 0 0 -61
0 -62 -152 -229 c-98 -148 -157 -228 -166 -226 -8 2 -82 102 -163 223 l-149
220 0 68 0 67 -65 0 c-43 0 -67 -4 -70 -13z"/>
<path d="M4162 3173 c-23 -57 -149 -348 -256 -593 -42 -95 -76 -180 -76 -187
0 -9 18 -13 65 -13 l65 0 30 63 c16 34 81 179 142 321 62 143 119 261 126 264
14 4 23 -16 179 -378 58 -135 110 -251 115 -257 13 -17 138 -18 138 -2 0 6
-44 113 -98 238 -54 124 -134 308 -178 409 l-79 182 -76 0 -76 0 -21 -47z"/>
<path d="M4830 3035 l-44 -45 87 -88 c48 -48 87 -94 87 -102 0 -8 -39 -54 -87
-102 l-88 -88 48 -47 47 -48 88 88 c48 48 94 87 102 87 8 0 54 -39 101 -86
l87 -86 41 37 c22 21 41 45 41 53 0 9 -39 56 -87 104 l-88 88 88 88 c48 48 87
95 87 104 0 8 -18 32 -41 53 l-41 37 -88 -86 c-48 -47 -94 -86 -101 -86 -8 0
-52 38 -99 85 -47 47 -87 85 -90 85 -3 0 -26 -20 -50 -45z"/>
<path d="M5540 3035 l-43 -44 93 -96 93 -96 -93 -95 -93 -95 38 -39 c22 -22
46 -40 55 -40 8 0 51 36 95 80 44 44 86 80 94 80 8 0 55 -39 103 -87 l89 -87
47 47 47 47 -88 88 c-48 48 -87 94 -87 102 0 8 39 54 87 102 l88 88 -47 47
-47 47 -89 -87 c-48 -48 -95 -87 -103 -87 -8 0 -48 34 -89 76 -41 41 -82 79
-91 84 -12 7 -27 -2 -59 -35z"/>
</g>
</svg>
